<?xml version="1.0" standalone="no"?>
<!DOCTYPE svg PUBLIC "-//W3C//DTD SVG 20010904//EN"
 "http://www.w3.org/TR/2001/REC-SVG-20010904/DTD/svg10.dtd">
<svg version="1.0" xmlns="http://www.w3.org/2000/svg"
 width="465.000000pt" height="238.000000pt" viewBox="0 0 465.000000 238.000000"
 preserveAspectRatio="xMidYMid meet">
<g transform="translate(0.000000,238.000000) scale(0.100000,-0.100000)"
fill="#000000" stroke="none">
<path d="M191 1812 c1 -4 61 -65 134 -135 l133 -128 196 1 196 2 47 -59 c25
-32 60 -73 77 -91 l31 -34 -184 -179 -183 -179 52 -60 52 -60 112 0 113 0 213
208 213 208 -34 46 c-19 25 -110 141 -203 257 l-169 212 -399 -2 c-219 0 -397
-4 -397 -7z m829 -73 c19 -28 47 -63 62 -80 17 -17 26 -35 22 -42 -4 -7 -3 -9
1 -4 11 10 55 -32 49 -47 -3 -7 3 -19 13 -27 17 -13 17 -13 3 6 -14 18 -14 19
2 7 9 -7 15 -22 13 -33 -2 -11 0 -17 4 -14 12 7 34 -22 27 -33 -3 -6 2 -9 11
-8 9 0 22 -9 28 -21 6 -12 23 -32 38 -43 17 -14 24 -26 20 -38 -3 -9 -3 -14 2
-10 11 11 46 -32 37 -46 -19 -30 -140 -135 -147 -128 -4 4 -5 2 -2 -4 4 -6
-18 -34 -48 -63 -30 -28 -53 -51 -50 -51 3 0 0 -6 -7 -14 -7 -7 -19 -11 -27
-8 -10 4 -13 1 -8 -10 3 -10 -4 -25 -20 -39 -15 -13 -23 -19 -20 -13 4 7 0 14
-8 17 -9 4 -12 1 -8 -9 3 -7 0 -14 -6 -14 -6 0 -11 6 -12 13 0 9 -2 9 -6 -1
-2 -6 -10 -9 -15 -6 -7 4 -8 2 -4 -5 4 -6 12 -9 17 -6 5 4 9 1 9 -5 0 -6 6 -8
13 -4 6 4 9 4 5 0 -3 -4 -8 -6 -10 -4 -5 4 -37 -26 -33 -32 2 -3 -46 -6 -106
-6 -89 -2 -109 1 -109 13 0 8 -4 11 -10 8 -5 -3 -12 6 -16 20 -3 13 -10 22
-15 19 -5 -3 -10 0 -10 5 -3 20 -4 26 -12 37 -9 14 17 25 41 18 15 -5 15 -4
-1 6 -18 11 -17 14 9 41 24 25 30 28 39 15 10 -12 13 -11 25 7 12 20 12 21 -3
8 -26 -21 -21 4 7 33 13 15 28 26 34 26 6 0 16 9 22 20 6 11 21 20 33 21 12 0
16 3 9 6 -9 3 -1 17 25 42 20 20 41 35 45 34 4 -2 8 3 8 11 0 8 8 21 19 28 18
13 42 66 24 55 -5 -3 -20 12 -33 34 -14 21 -28 39 -32 39 -4 0 -10 9 -13 20
-3 11 -13 20 -21 20 -8 0 -14 4 -14 8 0 5 -10 19 -23 32 -12 14 -21 27 -20 31
2 7 15 7 -219 9 -176 1 -196 3 -191 18 5 11 2 14 -9 9 -10 -3 -24 3 -34 14
-17 19 -17 20 2 14 10 -3 4 2 -13 11 -18 10 -33 24 -33 31 0 8 -4 12 -8 9 -14
-8 -54 44 -48 60 3 9 1 12 -5 9 -6 -4 -17 1 -25 11 -9 11 -12 13 -8 5 5 -9 3
-12 -5 -7 -35 22 24 26 358 26 l357 -1 34 -50z"/>
<path d="M1070 1655 c0 -5 5 -17 10 -25 5 -8 10 -10 10 -5 0 6 -5 17 -10 25
-5 8 -10 11 -10 5z"/>
<path d="M1051 1624 c0 -11 3 -14 6 -6 3 7 2 16 -1 19 -3 4 -6 -2 -5 -13z"/>
<path d="M1280 1391 c0 -6 4 -13 10 -16 6 -3 7 1 4 9 -7 18 -14 21 -14 7z"/>
<path d="M816 1145 c-11 -8 -15 -15 -9 -15 6 0 16 7 23 15 16 19 11 19 -14 0z"/>
<path d="M839 1133 c-13 -16 -12 -17 4 -4 16 13 21 21 13 21 -2 0 -10 -8 -17
-17z"/>
<path d="M864 1129 c-3 -6 -2 -15 3 -20 5 -5 9 -1 9 11 0 23 -2 24 -12 9z"/>
<path d="M755 1086 c-23 -25 -26 -40 -4 -19 12 12 21 24 18 27 -2 2 -9 -1 -14
-8z"/>
<path d="M1106 1088 c3 -5 10 -6 15 -3 13 9 11 12 -6 12 -8 0 -12 -4 -9 -9z"/>
<path d="M759 1053 c-13 -16 -12 -17 4 -4 9 7 17 15 17 17 0 8 -8 3 -21 -13z"/>
<path d="M1039 1003 c-13 -16 -12 -17 4 -4 9 7 17 15 17 17 0 8 -8 3 -21 -13z"/>
<path d="M1091 1803 c7 -12 15 -20 18 -17 3 2 -3 12 -13 22 -17 16 -18 16 -5
-5z"/>
<path d="M335 1262 c-61 -59 -139 -133 -173 -166 -35 -32 -61 -64 -57 -70 3
-6 88 -112 189 -236 l183 -225 177 -5 c98 -3 180 -3 182 -1 2 2 -2 9 -10 15
-7 6 -88 104 -181 219 -92 114 -171 209 -175 212 -7 5 322 337 340 343 6 2 10
8 10 13 0 5 -80 9 -187 9 l-188 0 -110 -108z m395 77 c0 -8 6 -7 17 2 14 12
16 12 11 -1 -2 -8 -19 -24 -36 -35 -17 -11 -31 -24 -32 -29 0 -5 -30 -38 -67
-73 -38 -35 -94 -89 -126 -119 l-57 -55 16 -35 c9 -19 20 -34 24 -34 4 0 25
-25 45 -55 21 -30 43 -55 48 -55 5 0 6 -7 3 -16 -3 -8 -2 -13 3 -10 9 6 61
-56 61 -73 0 -5 5 -13 12 -17 7 -5 9 -2 4 7 -7 13 18 -14 64 -69 11 -13 18
-27 16 -31 -3 -4 0 -13 6 -21 8 -12 9 -11 4 4 -6 16 -4 17 9 6 8 -7 15 -18 15
-25 0 -8 6 -15 13 -18 6 -3 -56 -5 -140 -5 l-152 -1 -38 47 c-20 26 -44 53
-53 60 -13 12 -13 13 0 7 12 -5 12 -4 -1 7 -32 27 -121 140 -114 146 3 3 10 1
14 -7 7 -10 9 -10 14 2 4 11 -1 14 -18 12 -26 -2 -70 39 -60 56 4 5 1 8 -6 7
-7 -2 -18 7 -25 20 -6 13 -27 39 -45 58 -18 19 -28 34 -21 34 7 0 12 4 12 9 0
17 239 248 252 244 4 -2 8 1 8 6 0 5 10 21 23 35 22 25 24 26 160 26 95 0 137
-3 137 -11z"/>
<path d="M886 1318 c3 -5 10 -6 15 -3 13 9 11 12 -6 12 -8 0 -12 -4 -9 -9z"/>
<path d="M1343 1195 c0 -8 4 -12 9 -9 5 3 6 10 3 15 -9 13 -12 11 -12 -6z"/>
<path d="M1530 1041 c0 -17 -49 -303 -56 -323 -5 -16 2 -18 59 -18 l65 0 7 50
7 50 111 0 c95 0 117 3 145 20 42 26 64 77 60 143 -3 46 -6 53 -33 66 -39 20
-365 30 -365 12z m105 -38 c3 -9 -2 -24 -10 -33 -20 -22 -25 -83 -8 -106 10
-13 25 -17 67 -16 110 3 144 16 141 54 -1 13 2 31 7 42 7 13 7 16 -2 11 -7 -4
-10 -1 -8 11 3 15 -7 18 -77 21 -93 5 -105 8 -105 26 0 11 15 14 65 13 36 0
65 -5 65 -10 0 -6 5 -5 12 2 14 14 32 16 24 4 -3 -5 8 -6 24 -4 21 3 32 -1 36
-13 5 -11 9 -13 14 -5 5 8 11 6 20 -5 10 -12 10 -15 -1 -15 -11 0 -11 -3 1
-11 9 -6 11 -12 4 -15 -6 -2 -9 -20 -8 -39 2 -21 -1 -35 -8 -35 -6 0 -8 -3 -5
-7 9 -8 -23 -44 -33 -38 -4 3 -26 -2 -48 -9 -22 -8 -42 -13 -44 -10 -2 2 -27
4 -56 5 -28 1 -49 6 -46 11 3 4 -2 8 -11 8 -10 0 -13 -5 -9 -12 5 -8 0 -9 -15
-5 -13 3 -20 3 -17 0 3 -4 -1 -15 -11 -25 -9 -10 -13 -18 -9 -18 3 0 0 -13 -8
-28 -12 -23 -21 -29 -43 -27 -17 1 -27 7 -25 15 2 7 4 27 6 44 8 87 31 203 43
221 9 14 13 15 13 5 1 -12 3 -12 10 2 12 19 46 13 55 -9z m173 -69 c6 -40 -22
-54 -107 -54 l-78 0 11 40 10 41 81 -3 c73 -3 80 -5 83 -24z"/>
<path d="M1650 1016 c0 -2 7 -7 16 -10 8 -3 12 -2 9 4 -6 10 -25 14 -25 6z"/>
<path d="M1603 985 c0 -7 6 -11 14 -8 7 3 13 6 13 8 0 2 -6 5 -13 8 -8 3 -14
-1 -14 -8z"/>
<path d="M1843 932 c-7 -4 -9 -13 -4 -21 6 -9 10 -7 14 8 3 12 4 21 4 21 -1 0
-7 -4 -14 -8z"/>
<path d="M1865 909 c-4 -6 -5 -12 -2 -15 2 -3 7 2 10 11 7 17 1 20 -8 4z"/>
<path d="M2000 1043 c0 -5 -14 -80 -30 -168 -17 -88 -30 -164 -30 -168 0 -4
28 -7 62 -5 l62 3 22 140 c13 77 26 155 29 173 l6 32 -61 0 c-33 0 -60 -3 -60
-7z m77 -26 c11 -12 13 -40 3 -52 -5 -6 -10 -34 -12 -63 -2 -33 -7 -52 -15
-52 -16 0 -17 -17 -2 -22 6 -2 8 -14 4 -31 -4 -15 -11 -24 -16 -21 -5 3 -9 0
-9 -5 0 -6 6 -11 13 -12 6 0 3 -4 -8 -9 -11 -5 -14 -9 -7 -9 7 -1 11 -5 8 -9
-7 -12 -66 -13 -66 -1 0 6 6 7 13 3 8 -6 8 -3 -1 9 -11 13 -12 26 -3 64 6 26
13 64 16 83 11 84 22 125 33 123 7 -2 12 1 12 6 0 10 26 9 37 -2z"/>
<path d="M2161 1003 c-6 -23 -11 -43 -11 -45 0 -2 32 -1 71 0 65 3 70 2 66
-15 -3 -10 -13 -58 -22 -108 -8 -49 -18 -100 -20 -112 -5 -22 -3 -23 57 -23
l63 0 19 118 c10 64 21 123 23 130 4 8 28 12 74 12 65 0 69 1 69 23 0 12 3 32
7 45 l6 24 -196 -3 -196 -3 -10 -43z m74 15 c11 -6 31 -4 65 7 12 4 20 3 17
-1 -3 -5 26 -8 64 -7 38 1 69 -3 69 -8 0 -5 -5 -9 -11 -9 -5 0 -7 -4 -4 -10 3
-5 1 -10 -4 -10 -6 0 -11 5 -11 11 0 5 -5 7 -10 4 -6 -4 -8 -10 -5 -15 3 -4
-1 -10 -9 -13 -9 -4 -17 -30 -22 -69 -6 -51 -9 -58 -15 -38 -5 17 -7 8 -5 -29
4 -73 -10 -108 -44 -109 -31 -1 -35 18 -19 94 17 89 19 154 3 154 -8 0 -14 5
-14 11 0 5 -4 7 -10 4 -5 -3 -10 -1 -10 4 0 7 -7 7 -21 -1 -18 -11 -23 -11
-27 1 -4 11 -6 11 -13 0 -6 -10 -8 -6 -7 12 2 24 19 31 43 17z m292 -16 c-1
-12 -8 -17 -26 -16 -15 2 -31 3 -38 3 -7 1 -10 8 -7 16 7 18 40 20 47 3 3 -8
6 -5 6 5 1 10 5 16 10 12 6 -3 9 -13 8 -23z"/>
<path d="M2582 883 c-18 -92 -32 -171 -32 -175 0 -5 71 -8 158 -8 l157 0 16
45 17 45 -110 0 c-73 0 -107 3 -103 10 4 6 15 57 25 113 10 57 20 110 22 118
2 11 -11 15 -57 17 l-61 3 -32 -168z m116 109 c2 -13 -2 -29 -8 -37 -6 -8 -9
-18 -7 -22 5 -8 -3 -62 -18 -115 -5 -21 -2 -29 15 -38 27 -15 131 -30 124 -18
-8 12 9 9 29 -6 34 -26 35 -26 -131 -32 -91 -3 -114 0 -118 11 -3 8 1 22 10
30 19 19 21 29 4 19 -8 -5 -9 2 -4 27 12 53 14 64 16 64 1 0 4 17 5 38 2 21 9
54 15 72 9 28 16 33 38 32 20 -2 28 -9 30 -25z m159 -228 c-3 -3 -12 -4 -19
-1 -8 3 -5 6 6 6 11 1 17 -2 13 -5z"/>
<path d="M3035 903 c-55 -80 -108 -159 -118 -174 l-19 -29 65 0 c63 0 67 2 84
30 17 30 18 30 111 30 l93 0 10 -30 c11 -29 13 -30 71 -30 l60 0 -6 28 c-4 15
-28 93 -53 175 l-46 147 -76 0 -76 0 -100 -147z m247 74 c6 -23 12 -44 13 -47
1 -3 10 -23 20 -45 9 -22 17 -51 17 -65 0 -14 4 -29 8 -35 4 -5 11 -20 14 -32
7 -21 4 -23 -24 -23 -23 0 -38 8 -57 30 -13 17 -29 28 -34 24 -5 -3 -9 3 -10
13 0 16 -1 16 -8 -1 -7 -17 -8 -18 -14 -3 -7 18 7 31 26 24 14 -5 17 70 4 91
-5 6 -5 17 -1 24 4 7 3 8 -4 4 -7 -4 -12 -1 -12 7 0 8 -7 20 -15 27 -13 10
-21 6 -50 -25 -44 -49 -71 -103 -56 -118 5 -5 23 -10 38 -11 18 -1 28 -6 28
-16 0 -17 -36 -21 -47 -5 -5 6 -8 5 -8 -3 0 -7 -4 -11 -9 -8 -10 7 -74 -14
-67 -21 10 -10 -22 -32 -54 -38 -24 -4 -30 -3 -23 7 4 7 8 15 8 18 3 21 18 50
26 50 6 0 7 -6 4 -12 -4 -7 5 -1 19 15 14 15 23 33 20 40 -2 7 4 21 15 31 11
10 18 23 14 29 -3 6 -1 7 5 3 8 -5 12 0 12 13 0 12 9 30 20 41 11 11 18 20 15
20 -9 0 29 37 42 41 7 2 35 2 63 1 49 -4 50 -5 62 -45z m-52 -134 c0 0 -27 -3
-60 -5 -63 -3 -71 1 -44 22 8 8 27 33 41 58 l26 44 18 -58 c10 -33 19 -60 19
-61z m-210 -24 c-7 -11 -14 -18 -17 -15 -3 3 0 12 7 21 18 21 23 19 10 -6z
m173 -13 c6 -14 0 -26 -13 -26 -3 0 -6 9 -6 20 0 23 11 27 19 6z"/>
<path d="M3104 946 c1 -8 5 -18 8 -22 4 -3 5 1 4 10 -1 8 -5 18 -8 22 -4 3 -5
-1 -4 -10z"/>
<path d="M3266 907 c3 -10 9 -15 12 -12 3 3 0 11 -7 18 -10 9 -11 8 -5 -6z"/>
<path d="M3065 871 c-3 -5 -2 -12 3 -15 5 -3 9 1 9 9 0 17 -3 19 -12 6z"/>
<path d="M3307 849 c4 -13 8 -18 11 -10 2 7 -1 18 -6 23 -8 8 -9 4 -5 -13z"/>
<path d="M3264 852 c3 -5 0 -13 -6 -15 -9 -4 -10 -6 -1 -6 17 -1 25 16 12 25
-7 4 -9 3 -5 -4z"/>
<path d="M3260 805 c0 -8 4 -15 8 -15 5 0 9 7 9 15 0 8 -4 15 -9 15 -4 0 -8
-7 -8 -15z"/>
<path d="M3026 792 c-3 -5 1 -9 9 -9 8 0 12 4 9 9 -3 4 -7 8 -9 8 -2 0 -6 -4
-9 -8z"/>
<path d="M3454 878 l-29 -173 53 -3 c30 -2 57 0 60 3 3 3 13 50 22 105 l15
100 70 -105 70 -105 67 0 67 0 6 33 c3 17 14 88 26 157 11 69 23 133 25 143 5
16 -1 18 -57 15 -53 -3 -63 -6 -65 -23 -1 -11 -8 -51 -14 -90 -7 -38 -13 -76
-13 -84 -1 -8 -33 33 -72 92 l-70 107 -66 0 -66 0 -29 -172z m386 140 c0 -4 5
-8 11 -8 5 0 7 6 3 13 -4 6 1 4 11 -5 16 -15 17 -21 5 -45 -7 -15 -14 -50 -15
-78 -1 -27 -8 -75 -14 -106 -11 -53 -14 -57 -44 -62 -18 -2 -38 0 -46 7 -11 8
-13 8 -7 -1 5 -9 2 -11 -9 -7 -9 4 -14 8 -12 11 2 2 -11 20 -30 41 -20 22 -32
44 -29 55 2 9 0 15 -4 12 -5 -3 -17 7 -27 22 -10 15 -28 37 -40 49 -21 21 -21
21 -26 2 -3 -11 -10 -17 -15 -14 -6 4 -8 -3 -5 -16 4 -19 3 -20 -6 -8 -6 8
-11 10 -11 4 0 -5 5 -15 10 -20 7 -7 6 -26 -4 -57 -16 -53 -16 -54 -16 -66 0
-12 -35 -20 -50 -11 -8 5 -9 24 0 76 6 38 11 79 12 92 0 12 3 22 7 22 4 0 8
15 9 33 5 62 9 67 64 67 40 0 49 -3 44 -15 -3 -8 0 -14 7 -12 7 1 11 -6 11
-15 -1 -10 2 -15 7 -13 11 7 40 -39 36 -56 -2 -8 -2 -11 0 -6 3 4 9 7 14 7 6
0 8 -4 5 -9 -3 -5 1 -14 9 -21 12 -10 13 -16 3 -28 -8 -10 -9 -13 -1 -9 13 8
43 -1 43 -13 0 -5 -7 -16 -16 -25 -14 -13 -19 -14 -25 -3 -5 7 -9 9 -9 3 0
-18 15 -32 40 -39 24 -6 24 -6 4 6 -19 12 -19 14 -3 30 10 9 20 13 24 10 4 -4
5 -2 4 3 -2 6 4 21 13 35 9 14 19 51 23 82 3 32 11 60 16 64 6 3 8 12 6 18 -3
7 1 13 9 13 8 0 14 -4 14 -9z"/>
<path d="M3969 1048 c-1 -6 -10 -59 -29 -173 -11 -66 -23 -132 -26 -147 l-6
-28 196 0 196 0 6 28 c3 15 8 34 10 42 3 14 -15 16 -133 17 -93 1 -138 5 -137
12 1 6 2 18 3 26 1 12 22 15 125 15 l124 0 4 35 4 34 -122 3 c-121 3 -121 3
-113 26 8 21 12 22 144 22 l135 0 0 29 c0 16 3 36 6 45 5 14 -15 16 -190 16
-108 0 -196 -1 -197 -2z m348 -41 c-1 -5 -25 -11 -53 -12 -219 -10 -212 -8
-216 -61 -1 -16 -7 -32 -13 -37 -5 -4 -1 -6 10 -5 24 3 162 -11 189 -19 12 -3
16 -1 12 6 -4 6 0 11 8 11 9 0 16 -6 16 -14 0 -12 -21 -14 -107 -14 -99 0
-109 -2 -125 -22 -23 -29 -23 -57 1 -70 11 -5 67 -10 125 -10 94 0 106 -2 106
-17 0 -16 -14 -18 -150 -18 -83 0 -150 4 -150 9 0 5 -7 3 -15 -4 -12 -10 -15
-10 -15 2 0 8 3 17 6 21 4 3 8 23 9 44 3 36 11 78 15 78 1 0 4 18 5 40 6 67
15 105 25 105 6 0 10 -6 10 -12 0 -9 3 -10 8 -2 4 6 47 11 106 12 54 1 100 3
102 4 8 9 95 -5 91 -15z"/>
</g>
</svg>
