<?xml version="1.0" encoding="UTF-8"?>
<svg version="1.1" xmlns="http://www.w3.org/2000/svg" width="282" height="288" viewBox="0 0 282 288">
<path d="M0 0 C1.33454722 -0.0193882 2.66909103 -0.03901228 4.00363159 -0.05885315 C16.14583865 -0.23164436 28.28921911 -0.32572666 40.43238544 -0.39992237 C49.3952989 -0.45584889 58.35605992 -0.5506916 67.31798488 -0.6955803 C73.63665308 -0.79427431 79.95473076 -0.846694 86.27413434 -0.86577719 C90.04152708 -0.87850736 93.80611834 -0.91157623 97.57265663 -0.99537086 C122.28796392 -1.52249429 122.28796392 -1.52249429 127.80177307 2.92843628 C130.45666277 5.72365843 132.13794515 8.82278044 133.7878418 12.30395508 C134.72549087 13.5569599 135.69548364 14.78730199 136.71362305 15.97583008 C137.50124023 16.99161133 138.28885742 18.00739258 139.1003418 19.05395508 C143.10158581 24.18849942 147.17132976 29.26140976 151.2878418 34.30395508 C155.81714287 39.85507819 160.28731443 45.4464235 164.69848633 51.09179688 C167.49537561 54.66851994 170.32006054 58.22080072 173.16699219 61.7578125 C178.16151624 67.9636737 183.07285457 74.22665906 187.9128418 80.55395508 C188.46955566 81.28138916 189.02626953 82.00882324 189.59985352 82.75830078 C195.8183542 90.91851236 195.8183542 90.91851236 195.63378906 93.25 C194.57945347 95.80992074 193.22378239 97.22421848 191.25268555 99.16723633 C190.52500977 99.88975586 189.79733398 100.61227539 189.04760742 101.35668945 C188.28125977 102.10241211 187.51491211 102.84813477 186.7253418 103.61645508 C185.98606445 104.35057617 185.24678711 105.08469727 184.48510742 105.84106445 C181.06950599 109.20885344 177.60821551 112.47065736 173.97753906 115.60546875 C169.90409889 119.15279975 166.08103943 122.89857543 162.2878418 126.74145508 C161.60786133 127.42522217 160.92788086 128.10898926 160.22729492 128.81347656 C158.07833254 130.97452563 155.93266901 133.13880234 153.7878418 135.30395508 C150.95750343 138.16111525 148.12371507 141.01478962 145.2878418 143.86645508 C144.33748047 144.82926392 144.33748047 144.82926392 143.36791992 145.81152344 C140.20662913 148.98981488 136.99270666 152.02256281 133.58300781 154.93432617 C130.48166605 157.59888498 128.08278323 160.42773236 125.56518555 163.65551758 C120.10991881 169.14518596 114.9866627 169.58710975 107.57699585 169.7666626 C105.75812589 169.76809893 103.93916026 169.75141842 102.12060547 169.7175293 C99.35339554 169.6789976 96.60628124 169.75787418 93.84057617 169.84692383 C80.2466102 169.97298274 80.2466102 169.97298274 75.20239258 165.69360352 C72.36755778 162.82317657 70.09005042 159.61302842 67.7878418 156.30395508 C66.39918814 154.77798474 64.98830763 153.27129734 63.5378418 151.80395508 C61.8347168 150.02270508 61.8347168 150.02270508 60.7878418 148.30395508 C61.21172576 144.74443712 62.67342209 143.04749907 65.17089844 140.56445312 C65.8857692 139.84658127 66.60063995 139.12870941 67.33717346 138.38908386 C68.11624557 137.62235855 68.89531769 136.85563324 69.69799805 136.06567383 C70.49886337 135.26668167 71.2997287 134.46768951 72.12486267 133.64448547 C73.82372713 131.95234776 75.52618761 130.26381391 77.23193359 128.57861328 C79.82270775 126.01875932 82.4028833 123.44861424 84.98120117 120.8762207 C86.63618393 119.23041854 88.2917644 117.58521717 89.94799805 115.94067383 C90.71290054 115.18002121 91.47780304 114.41936859 92.2658844 113.63566589 C96.40046882 109.55498468 100.62456762 105.64169617 105.02268982 101.8469696 C107.27469191 99.87837314 109.39964993 97.80529542 111.5065918 95.68286133 C112.29291992 94.89331055 113.07924805 94.10375977 113.8894043 93.2902832 C114.68088867 92.49041992 115.47237305 91.69055664 116.2878418 90.86645508 C117.52147461 89.62605469 117.52147461 89.62605469 118.7800293 88.3605957 C120.78496292 86.34400549 122.78750433 84.32510271 124.7878418 82.30395508 C122.95221052 78.34516491 120.35085763 75.54322336 117.3503418 72.42895508 C112.87174213 67.68126969 108.63665649 62.80873309 104.6003418 57.67895508 C104.13120361 57.08743652 103.66206543 56.49591797 103.17871094 55.88647461 C101.22105306 53.36755574 99.80478201 51.3547757 98.7878418 48.30395508 C97.32822021 48.34939453 97.32822021 48.34939453 95.83911133 48.39575195 C94.44962978 48.43820491 93.06014368 48.48050935 91.6706543 48.52270508 C90.54349754 48.55722275 90.54349754 48.55722275 89.39356995 48.59243774 C85.17342975 48.71836708 80.95366334 48.82727529 76.73242188 48.90893555 C74.96833718 48.94395779 73.20425841 48.97927969 71.44018555 49.01489258 C70.55073746 49.03268768 69.66128937 49.05048279 68.74488831 49.06881714 C63.6771894 49.18607538 58.63927848 49.42287218 53.58444214 49.79975891 C28.93203864 51.60897566 28.93203864 51.60897566 21.17456055 45.76098633 C17.44540304 42.32250677 14.41255362 38.53358741 11.44897461 34.43115234 C9.26949339 31.64017352 6.75785884 29.52171389 4.05004883 27.2578125 C-0.24096995 23.55168005 -4.20787059 19.49420668 -8.21508789 15.48632812 C-9.73217845 13.97146421 -11.25715558 12.46482916 -12.7824707 10.95825195 C-13.74910314 9.99454708 -14.71526717 9.03037209 -15.6809082 8.06567383 C-16.55166992 7.199021 -17.42243164 6.33236816 -18.31958008 5.43945312 C-20.2121582 3.30395508 -20.2121582 3.30395508 -20.2121582 1.30395508 C-13.4946817 0.09571463 -6.81155338 0.08379927 0 0 Z " fill="white" transform="translate(73.212158203125,20.696044921875)"/>
<path d="M0 0 C1.73533997 0.00917702 1.73533997 0.00917702 3.5057373 0.01853943 C7.20263253 0.04542973 10.8974294 0.11443834 14.59375 0.18359375 C17.04945729 0.2051322 19.50518916 0.22403939 21.9609375 0.24023438 C33.36348131 0.33987667 44.73682613 0.51900643 56.09375 1.62109375 C54.56379011 5.38415538 52.34332919 7.39522241 49.3046875 10.046875 C40.3918586 18.00037749 32.0166441 26.51072801 23.57373047 34.95581055 C21.18535414 37.34428925 18.79011477 39.72575883 16.39315224 42.10561657 C14.07267483 44.41222865 11.75945842 46.726101 9.4453125 49.0390625 C8.59522614 49.88196335 7.74513977 50.7248642 6.86929321 51.5933075 C2.15514646 56.32554572 -2.08755698 61.1355504 -5.90625 66.62109375 C-4.74609375 67.96300781 -4.74609375 67.96300781 -3.5625 69.33203125 C1.69735111 75.43166204 6.90962217 81.54853523 11.90625 87.8671875 C14.75447391 91.45289796 17.64195832 95.00594218 20.53125 98.55859375 C21.09416748 99.25090088 21.65708496 99.94320801 22.23706055 100.65649414 C26.1471154 105.46270972 30.06447882 110.26288291 33.9921875 115.0546875 C35.41691165 116.7945458 36.83869709 118.53681391 38.2578125 120.28125 C42.45185558 125.43117922 46.68644951 130.54446127 50.96875 135.62109375 C51.4332959 136.1732959 51.8978418 136.72549805 52.37646484 137.29443359 C54.15824503 139.39958114 55.92456656 141.45844529 57.9140625 143.37109375 C59.09375 144.62109375 59.09375 144.62109375 59.09375 146.62109375 C52.56910053 146.64680131 46.04446447 146.66410771 39.51977539 146.67602539 C37.30785636 146.68100249 35.09594054 146.68778657 32.8840332 146.6965332 C11.76050653 146.77786955 11.76050653 146.77786955 1.33203125 146.37890625 C0.03692627 146.33523926 -1.25817871 146.29157227 -2.5925293 146.24658203 C-7.6296666 145.29578664 -9.84328995 142.69983982 -12.8125 138.69140625 C-13.5034375 137.67820313 -14.194375 136.665 -14.90625 135.62109375 C-16.21025064 133.92203372 -17.54232815 132.24768726 -18.87744141 130.57299805 C-20.29489957 128.79143802 -21.69092317 126.99447853 -23.0859375 125.1953125 C-25.77208837 121.76012095 -28.56852126 118.4314403 -31.40625 115.12109375 C-35.67524579 110.13706012 -39.75508363 105.03296411 -43.78125 99.8515625 C-46.89773379 95.85856764 -50.11168156 91.96807649 -53.40625 88.12109375 C-59.11637273 81.45072556 -64.54180294 74.57131486 -69.90625 67.62109375 C-70.525 66.91082031 -71.14375 66.20054687 -71.78125 65.46875 C-72.90625 63.62109375 -72.90625 63.62109375 -72.76953125 61.58984375 C-70.01546172 55.30906979 -63.74956774 50.37791168 -58.96875 45.55859375 C-58.49139404 45.07648438 -58.01403809 44.594375 -57.5222168 44.09765625 C-54.81037868 41.39809713 -52.02405041 38.83706481 -49.12109375 36.34375 C-44.30863766 32.17341256 -39.8709346 27.65744263 -35.40625 23.12109375 C-30.38935531 18.02367106 -25.38257716 13.01334724 -19.90820312 8.40429688 C-17.93931573 6.76578802 -17.93931573 6.76578802 -16.75427246 5.10362244 C-12.06998988 -0.65919924 -7.03685039 -0.17702305 0 0 Z " fill="white" transform="translate(109.90625,101.37890625)"/>
</svg>
