<?xml version="1.0" standalone="no"?>
<svg version="1.0" xmlns="http://www.w3.org/2000/svg"
 width="465.000000pt" height="238.000000pt" viewBox="0 0 465.000000 238.000000"
 preserveAspectRatio="xMidYMid meet">
<!-- Top Arrow - Cyan -->
<g transform="translate(0.000000,238.000000) scale(0.100000,-0.100000)"
fill="#00D4FF" stroke="none">
<path d="M191 1812 c1 -4 61 -65 134 -135 l133 -128 196 1 196 2 47 -59 c25
-32 60 -73 77 -91 l31 -34 -184 -179 -183 -179 52 -60 52 -60 112 0 113 0 213
208 213 208 -34 46 c-19 25 -110 141 -203 257 l-169 212 -399 -2 c-219 0 -397
-4 -397 -7z"/>
</g>
<!-- Bottom Arrow - Orange -->
<g transform="translate(0.000000,238.000000) scale(0.100000,-0.100000)"
fill="#FF6B35" stroke="none">
<path d="M335 1262 c-61 -59 -139 -133 -173 -166 -35 -32 -61 -64 -57 -70 3
-6 88 -112 189 -236 l183 -225 177 -5 c98 -3 180 -3 182 -1 2 2 -2 9 -10 15
-7 6 -88 104 -181 219 -92 114 -171 209 -175 212 -7 5 322 337 340 343 6 2 10
8 10 13 0 5 -80 9 -187 9 l-188 0 -110 -108z"/>
</g>
<!-- Text PITLANE - White -->
<g transform="translate(0.000000,238.000000) scale(0.100000,-0.100000)"
fill="#FFFFFF" stroke="none">
<path d="M1530 1041 c0 -17 -49 -303 -56 -323 -5 -16 2 -18 59 -18 l65 0 7 50
7 50 111 0 c95 0 117 3 145 20 42 26 64 77 60 143 -3 46 -6 53 -33 66 -39 20
-365 30 -365 12z m280 -67 c6 -40 -22 -54 -107 -54 l-78 0 11 40 10 41 81 -3 c73 -3 80 -5 83 -24z"/>
<path d="M2000 1043 c0 -5 -14 -80 -30 -168 -17 -88 -30 -164 -30 -168 0 -4
28 -7 62 -5 l62 3 22 140 c13 77 26 155 29 173 l6 32 -61 0 c-33 0 -60 -3 -60
-7z"/>
<path d="M2161 1003 c-6 -23 -11 -43 -11 -45 0 -2 32 -1 71 0 65 3 70 2 66
-15 -3 -10 -13 -58 -22 -108 -8 -49 -18 -100 -20 -112 -5 -22 -3 -23 57 -23
l63 0 19 118 c10 64 21 123 23 130 4 8 28 12 74 12 65 0 69 1 69 23 0 12 3 32
7 45 l6 24 -196 -3 -196 -3 -10 -43z"/>
<path d="M2582 883 c-18 -92 -32 -171 -32 -175 0 -5 71 -8 158 -8 l157 0 16
45 17 45 -110 0 c-73 0 -107 3 -103 10 4 6 15 57 25 113 10 57 20 110 22 118
2 11 -11 15 -57 17 l-61 3 -32 -168z"/>
<path d="M3035 903 c-55 -80 -108 -159 -118 -174 l-19 -29 65 0 c63 0 67 2 84
30 17 30 18 30 111 30 l93 0 10 -30 c11 -29 13 -30 71 -30 l60 0 -6 28 c-4 15
-28 93 -53 175 l-46 147 -76 0 -76 0 -100 -147z m195 -30 c0 0 -27 -3 -60 -5 -63 -3 -71 1 -44 22 8 8 27 33 41 58 l26 44 18 -58 c10 -33 19 -60 19 -61z"/>
<path d="M3454 878 l-29 -173 53 -3 c30 -2 57 0 60 3 3 3 13 50 22 105 l15
100 70 -105 70 -105 67 0 67 0 6 33 c3 17 14 88 26 157 11 69 23 133 25 143 5
16 -1 18 -57 15 -53 -3 -63 -6 -65 -23 -1 -11 -8 -51 -14 -90 -7 -38 -13 -76
-13 -84 -1 -8 -33 33 -72 92 l-70 107 -66 0 -66 0 -29 -172z"/>
<path d="M3969 1048 c-1 -6 -10 -59 -29 -173 -11 -66 -23 -132 -26 -147 l-6
-28 196 0 196 0 6 28 c3 15 8 34 10 42 3 14 -15 16 -133 17 -93 1 -138 5 -137
12 1 6 2 18 3 26 1 12 22 15 125 15 l124 0 4 35 4 34 -122 3 c-121 3 -121 3
-113 26 8 21 12 22 144 22 l135 0 0 29 c0 16 3 36 6 45 5 14 -15 16 -190 16
-108 0 -196 -1 -197 -2z"/>
</g>
</svg>
